<?xml version="1.0" encoding="UTF-8"?>
<svg width="28px" height="28px" viewBox="0 0 28 28" version="1.1" xmlns="http://www.w3.org/2000/svg" xmlns:xlink="http://www.w3.org/1999/xlink">
    <title>instagram</title>
    <defs>
        <path d="M18.9286652,3 L9.07107452,3 C5.72348606,3 3,5.72361619 3,9.07120465 L3,18.9287954 C3,22.2765139 5.72348606,25 9.07107452,25 L18.9286652,25 C22.2765139,25 25,22.2763838 25,18.9287954 L25,9.07120465 C25,5.72361619 22.2765139,3 18.9286652,3 Z M18.9286652,4.95194662 C21.2000804,4.95194662 23.0481835,6.79991956 23.0481835,9.07120465 L23.0481835,18.9287954 C23.0481835,21.2002106 21.2002106,23.0480534 18.9287954,23.0480534 L9.07107452,23.0480534 C6.79978943,23.0480534 4.95194662,21.2002106 4.95194662,18.9287954 L4.95194662,9.07120465 C4.95194662,6.79991956 6.79978943,4.95194662 9.07107452,4.95194662 L18.9286652,4.95194662 Z M14,8.23809524 C10.8228379,8.23809524 8.23809524,10.8228972 8.23809524,14.0001323 C8.23809524,17.1772351 10.8228379,19.7619048 14,19.7619048 C17.1771621,19.7619048 19.7619048,17.1772351 19.7619048,14.0001323 C19.7619048,10.8228972 17.1771621,8.23809524 14,8.23809524 Z M14,10.2219989 C16.0831899,10.2219989 17.7779144,11.9167623 17.7779144,14 C17.7779144,16.0831054 16.0830576,17.7777366 14,17.7777366 C11.9169424,17.7777366 10.2220856,16.0831054 10.2220856,14 C10.2220856,11.9167623 11.9168101,10.2219989 14,10.2219989 Z M20.2857143,6.14285714 C19.8728571,6.14285714 19.4672857,6.31 19.1757143,6.60285714 C18.8827143,6.89428571 18.7142857,7.3 18.7142857,7.71428571 C18.7142857,8.12728571 18.8828571,8.53285714 19.1757143,8.82571429 C19.4671429,9.11714286 19.8728571,9.28571429 20.2857143,9.28571429 C20.7,9.28571429 21.1042857,9.11714286 21.3971429,8.82571429 C21.69,8.53285714 21.8571429,8.12714286 21.8571429,7.71428571 C21.8571429,7.3 21.69,6.89428571 21.3971429,6.60285714 C21.1057143,6.31 20.7,6.14285714 20.2857143,6.14285714 Z" id="path-1"></path>
    </defs>
    <g id="Symbols" stroke="none" stroke-width="1" fill="none" fill-rule="evenodd">
        <g id="Sections/Footer" transform="translate(-1006.000000, -586.000000)">
            <g id="Social" transform="translate(958.000000, 554.000000)">
                <g id="instagram" transform="translate(48.000000, 32.000000)">
                    <rect id="bg" x="0" y="0" width="28" height="28"></rect>
                    <mask id="mask-2" fill="white">
                        <use xlink:href="#path-1"></use>
                    </mask>
                    <use fill="#FFFFFF" fill-rule="nonzero" xlink:href="#path-1"></use>
                </g>
            </g>
        </g>
    </g>
</svg>