<svg xmlns="http://www.w3.org/2000/svg" viewBox="0 0 191.55 306.77"><g id="Layer_2" data-name="Layer 2"><g id="_" data-name="™"><path d="M37.16,197.74h8.61v109H37.16Z"/><path d="M51.54,109l-23-32.9V109H19.82V0h8.69V73.86L47.42,43.4H57.79L38.42,74.92,62.36,109Z"/><path d="M129.91,92.74A33.36,33.36,0,0,1,117.4,106a33.88,33.88,0,0,1-18,5A33.27,33.27,0,0,1,75,100.81,33.36,33.36,0,0,1,64.8,76.3,32.88,32.88,0,0,1,75,51.93a33.3,33.3,0,0,1,24.39-10.2,33.86,33.86,0,0,1,16.93,4.49,34.78,34.78,0,0,1,12.35,11.34L83.86,97a24.33,24.33,0,0,0,15.55,5.17,25.11,25.11,0,0,0,13.5-3.73,25.68,25.68,0,0,0,9.37-10.12ZM116.34,56.8a25.73,25.73,0,0,0-16.93-6.24A25.49,25.49,0,0,0,73.64,76.3a26,26,0,0,0,4.27,14.46Z"/><path d="M149.42,101.58a11.71,11.71,0,0,0,11.74-11.73,11.68,11.68,0,0,0-2.36-7.23,10.61,10.61,0,0,0-5.87-4l-7.78-2.28a17.92,17.92,0,0,1-9.22-6.25,16.31,16.31,0,0,1-3.59-10.35,16.75,16.75,0,0,1,5-12.34,17.11,17.11,0,0,1,12.35-5A17.08,17.08,0,0,1,165.58,53l-8.08,3.35q-1.83-5.18-7.77-5.18a8,8,0,0,0-6.1,2.59,8.38,8.38,0,0,0-2.44,5.94q0,6.39,6.25,8.07l7.78,2.28A20,20,0,0,1,170,89.85a20.36,20.36,0,0,1-5.95,14.62,19.18,19.18,0,0,1-6.56,4.26,21.47,21.47,0,0,1-8.08,1.53,19.73,19.73,0,0,1-10.59-3,22.33,22.33,0,0,1-7.71-8L138.75,95Q141.95,101.57,149.42,101.58Z"/><path d="M54.43,129.74a25.46,25.46,0,0,0-19.82-9.14,24.92,24.92,0,0,0-18.3,7.46,26.29,26.29,0,0,0,0,36.71,24.92,24.92,0,0,0,18.3,7.46,24.49,24.49,0,0,0,19.21-8.68L61,169a35,35,0,0,1-11.74,8.91,34.27,34.27,0,0,1-14.64,3.12,33.3,33.3,0,0,1-24.39-10.2A33.38,33.38,0,0,1,0,146.34,32.89,32.89,0,0,1,10.22,122a33.3,33.3,0,0,1,24.39-10.2,33.28,33.28,0,0,1,26.68,12.49Z"/><path d="M106.88,131a17.1,17.1,0,0,0-3.66-5.48,16.08,16.08,0,0,0-5.49-3.58,18.17,18.17,0,0,0-6.86-1.3,17.14,17.14,0,0,0-12.35,5,16.59,16.59,0,0,0-5,12.18v41.27H64.8V70h8.69v48.28a26.44,26.44,0,0,1,36,1.06,25.07,25.07,0,0,1,7.63,18.43v41.27h-8.85V137.81A17.07,17.07,0,0,0,106.88,131Z"/><path d="M187.08,162.79A33.24,33.24,0,0,1,174.58,176a33.82,33.82,0,0,1-18,5A34.84,34.84,0,0,1,122,146.34,32.92,32.92,0,0,1,132.19,122a33.32,33.32,0,0,1,24.4-10.2,33.83,33.83,0,0,1,16.92,4.49,34.72,34.72,0,0,1,12.35,11.35L141,167.05a24.34,24.34,0,0,0,15.55,5.18,25.06,25.06,0,0,0,13.49-3.73,25.8,25.8,0,0,0,9.38-10.13Zm-13.57-35.94a25.64,25.64,0,0,0-16.92-6.25,25.49,25.49,0,0,0-25.77,25.74,25.93,25.93,0,0,0,4.27,14.47Z"/><path d="M37.2,140.09h8.69v109H37.2Z"/><path d="M114.51,232.83A33.36,33.36,0,0,1,102,246.08a33.87,33.87,0,0,1-18,5,33.3,33.3,0,0,1-24.39-10.2A33.37,33.37,0,0,1,49.4,216.38,32.87,32.87,0,0,1,59.62,192,33.31,33.31,0,0,1,84,181.81a33.77,33.77,0,0,1,16.93,4.5,34.69,34.69,0,0,1,12.35,11.34L68.46,237.09A24.28,24.28,0,0,0,84,242.27a25.06,25.06,0,0,0,13.49-3.73,25.66,25.66,0,0,0,9.38-10.13Zm-13.57-35.94A25.73,25.73,0,0,0,84,190.65a25.49,25.49,0,0,0-25.77,25.73,26,26,0,0,0,4.27,14.47Z"/><path d="M148.51,191.25a15.51,15.51,0,0,0-4.73-.6,16.84,16.84,0,0,0-12.12,5,17.15,17.15,0,0,0-3.51,5.33,16.26,16.26,0,0,0-1.29,6.4v41.72h-8.7V183.49l7.32,5.94a24.33,24.33,0,0,1,18.3-7.62,22.46,22.46,0,0,1,8.69,1.53Z"/><path d="M164.17,246.72a8.48,8.48,0,0,1-2.88,2.44,9,9,0,0,1-4.25.93,10.54,10.54,0,0,1-3.94-.72,9.21,9.21,0,0,1-3.11-2,9.32,9.32,0,0,1-2.05-3.1,10.38,10.38,0,0,1-.74-4,10.13,10.13,0,0,1,.76-4,8.92,8.92,0,0,1,2.08-3.07,9.49,9.49,0,0,1,3.15-2,10.89,10.89,0,0,1,4-.71,9.94,9.94,0,0,1,1.93.19,9.15,9.15,0,0,1,1.87.55,7.76,7.76,0,0,1,1.63.9,5.8,5.8,0,0,1,1.27,1.25L161.79,235a5.11,5.11,0,0,0-1.94-1.56,6,6,0,0,0-2.7-.62,7.11,7.11,0,0,0-2.94.59A6.48,6.48,0,0,0,152,235a7.34,7.34,0,0,0-1.43,2.38,8.3,8.3,0,0,0-.5,2.88,8.56,8.56,0,0,0,.49,2.94,7,7,0,0,0,1.4,2.38,6.42,6.42,0,0,0,2.22,1.6,7.2,7.2,0,0,0,2.91.57,6.54,6.54,0,0,0,2.88-.63,5.47,5.47,0,0,0,2.13-1.84Z"/><path d="M182.76,240.28a10.2,10.2,0,0,1-.75,4,9.21,9.21,0,0,1-5.21,5.13,11.2,11.2,0,0,1-7.9,0,9.36,9.36,0,0,1-3.12-2,9.19,9.19,0,0,1-2.06-3.1,10.38,10.38,0,0,1-.74-4,10.5,10.5,0,0,1,.74-4,8.88,8.88,0,0,1,2.06-3.07,9.26,9.26,0,0,1,3.12-2,11.34,11.34,0,0,1,7.9,0,9.25,9.25,0,0,1,3.14,2,9,9,0,0,1,2.07,3.07A10.31,10.31,0,0,1,182.76,240.28Zm-2.82,0a8.3,8.3,0,0,0-.5-2.88A7.31,7.31,0,0,0,178,235a6.57,6.57,0,0,0-2.23-1.62,7.57,7.57,0,0,0-5.86,0,6.44,6.44,0,0,0-2.22,1.62,7.66,7.66,0,0,0-1.41,2.38,8.3,8.3,0,0,0-.5,2.88,8.53,8.53,0,0,0,.5,2.92,7.23,7.23,0,0,0,1.43,2.38,6.69,6.69,0,0,0,2.21,1.59,7.13,7.13,0,0,0,2.91.58,7.28,7.28,0,0,0,2.92-.58,6.75,6.75,0,0,0,2.25-1.59,7.21,7.21,0,0,0,1.42-2.38A8.53,8.53,0,0,0,179.94,240.28Z"/><path d="M183.78,248.58a1.16,1.16,0,0,1-1.16,1.14,1.12,1.12,0,0,1-.83-.34,1.12,1.12,0,0,1,0-1.59,1.2,1.2,0,0,1,1.66,0A1.09,1.09,0,0,1,183.78,248.58Z"/><path d="M162.3,228.65a13.59,13.59,0,0,1-5.48-1.11,14.56,14.56,0,0,1-4.48-3,13.49,13.49,0,0,1-3-4.45,14,14,0,0,1-1.09-5.48,13.28,13.28,0,0,1,.66-4.14,14.58,14.58,0,0,1,1.87-3.77,13.78,13.78,0,0,1,2.93-3.08,15.76,15.76,0,0,1,3.9-2.2l-1.49-2.28a7.14,7.14,0,0,1-1.15-3.88,6.85,6.85,0,0,1,2.13-5,7.08,7.08,0,0,1,5.16-2.17,7,7,0,0,1,5.11,2.11,6.92,6.92,0,0,1,2.13,5.09,7.12,7.12,0,0,1-1.21,4.08,6.77,6.77,0,0,1-3.33,2.6l-2.47,1L173,219.69a18.52,18.52,0,0,0,2.76-4.51l2,2.68a18.46,18.46,0,0,1-2.93,4.74l3.33,5.26h-4l-1.78-3A15.59,15.59,0,0,1,162.3,228.65Zm-3-24.43a12.83,12.83,0,0,0-5.74,4.34,10.13,10.13,0,0,0-2.07,6.05,10.27,10.27,0,0,0,3.22,7.71,10.71,10.71,0,0,0,7.58,3,12.85,12.85,0,0,0,8.27-3.19Zm4.43-5.31a3.74,3.74,0,0,0,2.41-3.65,3.92,3.92,0,0,0-1.09-2.72,3.69,3.69,0,0,0-2.82-1.17,4,4,0,0,0-2.75,1.09,3.56,3.56,0,0,0-1.21,2.8,3.41,3.41,0,0,0,.63,2l1.78,2.86Z"/><path d="M187.37,231.6v.54h-1v2.72h-.65v-2.72h-1v-.54Zm3.53,3.26-.12-1.92c0-.25,0-.56,0-.91h0c-.09.29-.19.67-.28,1l-.58,1.82h-.68L188.6,233l-.23-.93h0c0,.3,0,.61,0,.91l-.12,1.92h-.63l.24-3.26h1l.56,1.6c.08.25.13.49.22.82h0c.08-.28.15-.57.22-.8l.57-1.62h.93l.26,3.26Z"/></g></g></svg>