<?xml version="1.0" encoding="UTF-8"?>
<svg width="95px" height="25px" viewBox="0 0 95 25" version="1.1" xmlns="http://www.w3.org/2000/svg" xmlns:xlink="http://www.w3.org/1999/xlink">
    <title>Lpardo</title>
    <g id="Symbols" stroke="none" stroke-width="1" fill="none" fill-rule="evenodd">
        <g id="Logo/Black" fill="#000000" fill-rule="nonzero">
            <path d="M1.26180638,19.2743764 C0.813161865,19.2743764 0.490703461,19.1751711 0.294421488,18.9767574 C0.0981395145,18.7783437 0,18.4712795 0,18.0555556 L0,1.24716553 C0,0.83144161 0.0981395145,0.519653345 0.294421488,0.311791383 C0.490703461,0.103929422 0.813161865,0 1.26180638,0 L3.364817,0 C3.83215503,0 4.15928675,0.0992053571 4.34622196,0.297619048 C4.53315717,0.496032738 4.62662338,0.812545068 4.62662338,1.24716553 L4.62662338,15.8446712 L12.5339433,15.8446712 C12.9825878,15.8446712 13.2910263,15.9391525 13.459268,16.1281179 C13.6275097,16.3170833 13.7116293,16.6288716 13.7116293,17.0634921 L13.7116293,18.0839002 C13.7116293,18.5185207 13.6275097,18.8255849 13.459268,19.005102 C13.2910263,19.1846192 12.9825878,19.2743764 12.5339433,19.2743764 L1.26180638,19.2743764 Z M16.7119244,25 C16.2632799,25 15.9408215,24.9007946 15.7445396,24.702381 C15.5482576,24.5039673 15.4501181,24.1969031 15.4501181,23.7811791 L15.4501181,7.17120181 C16.235246,6.6232021 17.2400077,6.16496783 18.4644333,5.79648526 C19.6888589,5.42800269 20.9459794,5.24376417 22.2358323,5.24376417 C27.7691146,5.24376417 30.5357143,7.66248526 30.5357143,12.5 C30.5357143,14.7108954 29.9422039,16.4635234 28.7551653,17.7579365 C27.5681267,19.0523496 25.9091016,19.6995465 23.7780401,19.6995465 C22.9929122,19.6995465 22.2778958,19.5956171 21.6329693,19.3877551 C20.9880428,19.1798931 20.4412655,18.8681049 19.992621,18.452381 L19.992621,23.7811791 C19.992621,24.1969031 19.8991548,24.5039673 19.7122196,24.702381 C19.5252844,24.9007946 19.1981527,25 18.7308146,25 L16.7119244,25 Z M22.7405549,16.4965986 C23.8060856,16.4965986 24.6052217,16.1375697 25.137987,15.4195011 C25.6707524,14.7014325 25.9371311,13.6999308 25.9371311,12.414966 C25.9371311,10.9977253 25.619346,9.98677551 24.9837662,9.38208617 C24.3481865,8.77739683 23.3854846,8.47505669 22.0956316,8.47505669 C21.1983426,8.47505669 20.4879995,8.6073305 19.9645809,8.87188209 L19.9645809,13.9172336 C19.9645809,14.7297849 20.2216129,15.3628095 20.7356848,15.8163265 C21.2497566,16.2698435 21.91804,16.4965986 22.7405549,16.4965986 Z M38.190673,19.6995465 C36.3960949,19.6995465 34.9613887,19.1326587 33.8865112,17.9988662 C32.8116337,16.8650737 32.2742031,15.2683399 32.2742031,13.2086168 C32.2742031,11.6213073 32.6387213,10.2277082 33.3677686,9.02777778 C34.0968159,7.82784736 35.1155976,6.89720663 36.424144,6.23582766 C37.7326905,5.5744487 39.246843,5.24376417 40.966647,5.24376417 C42.293887,5.24376417 43.4668879,5.39493424 44.4856848,5.69727891 C45.5044817,5.99962358 46.4344704,6.43423753 47.2756789,7.00113379 L47.2756789,18.452381 C47.2756789,18.7736222 47.2149258,18.9909291 47.0934179,19.1043084 C46.9719101,19.2176876 46.7335712,19.2743764 46.3783943,19.2743764 L44.1632231,19.2743764 C43.9575944,19.2743764 43.8033752,19.2365839 43.7005608,19.1609977 C43.5977464,19.0854116 43.5183002,18.9625859 43.4622196,18.792517 L43.153778,17.8004535 C42.5929724,18.4618325 41.9106691,18.9436871 41.1068477,19.2460317 C40.3030263,19.5483764 39.3309778,19.6995465 38.190673,19.6995465 Z M39.9011216,16.468254 C40.7236365,16.468254 41.438653,16.2320507 42.0461924,15.7596372 C42.6537319,15.2872236 42.957497,14.6447509 42.957497,13.8321995 L42.957497,8.87188209 C42.3966914,8.58843396 41.7237347,8.44671202 40.9386068,8.44671202 C39.7048344,8.44671202 38.718766,8.85770564 37.9803719,9.67970522 C37.2419778,10.5017048 36.8727863,11.6496525 36.8727863,13.1235828 C36.8727863,14.2573753 37.1251451,15.0982588 37.6298701,15.6462585 C38.1345952,16.1942582 38.8916715,16.468254 39.9011216,16.468254 Z M51.4256198,19.2743764 C50.9582818,19.2743764 50.6264768,19.1751711 50.4301948,18.9767574 C50.2339128,18.7783437 50.1357733,18.4712795 50.1357733,18.0555556 L50.1357733,6.49092971 C50.1357733,6.16968849 50.191853,5.95238152 50.3040142,5.83900227 C50.4161753,5.72562302 50.6404942,5.66893424 50.9769776,5.66893424 L53.2201889,5.66893424 C53.4445112,5.66893424 53.608077,5.70672676 53.7108914,5.78231293 C53.8137057,5.85789909 53.8744588,5.9901729 53.8931523,6.17913832 L54.0053129,7.0861678 C55.1269241,5.85789257 56.5289172,5.24376417 58.2113341,5.24376417 C58.7534462,5.24376417 59.1974107,5.28628075 59.5432409,5.37131519 C59.889071,5.45634963 60.1928362,5.59334751 60.4545455,5.78231293 C60.6227871,5.91458872 60.7069067,6.04686253 60.7069067,6.17913832 C60.7069067,6.23582795 60.6882135,6.32086111 60.6508264,6.43424036 L59.9498229,8.5600907 C59.8750488,8.78684807 59.7535428,8.90022676 59.5853011,8.90022676 C59.510527,8.90022676 59.4170608,8.87188237 59.3048996,8.81519274 C58.8188681,8.5695377 58.2580709,8.44671202 57.6224911,8.44671202 C56.7999762,8.44671202 56.1176729,8.68291525 55.5755608,9.1553288 C55.0334487,9.62774235 54.7623967,10.260767 54.7623967,11.0544218 L54.7623967,18.0555556 C54.7623967,18.4712795 54.6689305,18.7783437 54.4819953,18.9767574 C54.2950601,19.1751711 53.9679284,19.2743764 53.5005903,19.2743764 L51.4256198,19.2743764 Z M70.072314,19.6995465 C64.6138058,19.6995465 61.8845927,17.2713773 61.8845927,12.414966 C61.8845927,10.9977253 62.1509714,9.74584821 62.6837367,8.65929705 C63.2165021,7.57274589 63.9969449,6.73186239 65.0250885,6.13662132 C66.0532322,5.54138024 67.2776395,5.24376417 68.6983471,5.24376417 C69.5021685,5.24376417 70.2265316,5.3335214 70.8714581,5.51303855 C71.5163846,5.6925557 72.035122,5.95237925 72.427686,6.29251701 L72.427686,1.24716553 C72.427686,0.812545068 72.5211522,0.496032738 72.7080874,0.297619048 C72.8950226,0.0992053571 73.2221543,0 73.6894923,0 L75.7083825,0 C76.157027,0 76.4794854,0.103929422 76.6757674,0.311791383 C76.8720494,0.519653345 76.9701889,0.83144161 76.9701889,1.24716553 L76.9701889,17.7721088 C76.2037545,18.3390051 75.2036661,18.8019634 73.9698937,19.1609977 C72.7361213,19.520032 71.4369411,19.6995465 70.072314,19.6995465 Z M70.1844746,16.468254 C71.1004572,16.468254 71.8481868,16.3076358 72.427686,15.9863946 L72.427686,10.7993197 C72.427686,10.0245615 72.1846738,9.44350156 71.6986423,9.05612245 C71.2126107,8.66874334 70.5583473,8.47505669 69.7358323,8.47505669 C68.6329146,8.47505669 67.8150853,8.82936154 67.28232,9.53798186 C66.7495546,10.2466022 66.4831759,11.2244836 66.4831759,12.4716553 C66.4831759,13.9077925 66.7916144,14.9329145 67.4085006,15.5470522 C68.0253868,16.1611898 68.9507022,16.468254 70.1844746,16.468254 Z M87.1207202,19.6995465 C84.6344819,19.6995465 82.7044047,19.0523496 81.3304309,17.7579365 C79.9564571,16.4635234 79.2694805,14.7014473 79.2694805,12.4716553 C79.2694805,10.2418634 79.9564571,8.47978727 81.3304309,7.18537415 C82.7044047,5.89096103 84.6344819,5.24376417 87.1207202,5.24376417 C89.625652,5.24376417 91.5650758,5.89096103 92.9390496,7.18537415 C94.3130234,8.47978727 95,10.2418634 95,12.4716553 C95,14.7014473 94.3130234,16.4635234 92.9390496,17.7579365 C91.5650758,19.0523496 89.625652,19.6995465 87.1207202,19.6995465 Z M87.1207202,16.3265306 C88.1862509,16.3265306 88.9994069,16.0052942 89.5602125,15.3628118 C90.1210182,14.7203294 90.4014168,13.7566202 90.4014168,12.4716553 C90.4014168,11.205587 90.1210182,10.251326 89.5602125,9.60884354 C88.9994069,8.96636111 88.1862509,8.64512472 87.1207202,8.64512472 C86.073883,8.64512472 85.2700736,8.96636111 84.709268,9.60884354 C84.1484624,10.251326 83.8680638,11.205587 83.8680638,12.4716553 C83.8680638,13.7377236 84.1484624,14.6967088 84.709268,15.3486395 C85.2700736,16.0005702 86.073883,16.3265306 87.1207202,16.3265306 Z" id="Lpardo"></path>
        </g>
    </g>
</svg>