<?xml version="1.0" encoding="UTF-8"?>
<svg width="225px" height="51px" viewBox="0 0 225 51" version="1.1" xmlns="http://www.w3.org/2000/svg" xmlns:xlink="http://www.w3.org/1999/xlink">
    <title>M.Geralldiny</title>
    <g id="Symbols" stroke="none" stroke-width="1" fill="none" fill-rule="evenodd">
        <g id="Sections/Features2" transform="translate(-1305.000000, -421.000000)" fill="#1C1C1C" fill-rule="nonzero">
            <g id="Text" transform="translate(975.000000, 93.000000)">
                <path d="M378.234375,332.983398 C377.646481,333.844731 376.990238,334.876947 376.265625,336.080078 C375.541012,337.283209 374.768559,338.629875 373.948242,340.120117 C373.250973,341.364264 372.563968,342.687005 371.887207,344.088379 C371.210446,345.489753 370.564456,346.877435 369.949219,348.251465 C369.333981,349.625495 368.766604,350.944818 368.24707,352.209473 C367.727536,353.474127 367.276369,354.588374 366.893555,355.552246 C366.51074,356.516118 366.209962,357.288571 365.991211,357.869629 C365.77246,358.450686 365.663086,358.748047 365.663086,358.761719 C365.526367,359.103517 365.280275,359.274414 364.924805,359.274414 C364.747069,359.274414 364.589844,359.216309 364.453125,359.100098 C364.316406,358.983886 364.227539,358.836915 364.186523,358.65918 C364.186523,358.645508 364.121583,358.354983 363.991699,357.787598 C363.861816,357.220212 363.687501,356.461431 363.46875,355.51123 C363.249999,354.56103 363.00049,353.467291 362.720215,352.22998 C362.43994,350.99267 362.145998,349.70069 361.838379,348.354004 C361.53076,347.007317 361.219728,345.643562 360.905273,344.262695 C360.590819,342.881829 360.296876,341.569342 360.023438,340.325195 C359.107417,342.909193 358.187993,345.195791 357.265137,347.185059 C356.342281,349.174326 355.395513,350.903801 354.424805,352.373535 C353.454097,353.843269 352.452642,355.077143 351.42041,356.075195 C350.388178,357.073247 349.308111,357.876462 348.180176,358.484863 C347.05224,359.093265 345.869635,359.527342 344.632324,359.787109 C343.395013,360.046876 342.085944,360.176758 340.705078,360.176758 C339.994137,360.176758 339.235356,360.098145 338.428711,359.940918 C337.622066,359.783691 336.82227,359.541017 336.029297,359.212891 C335.236324,358.884764 334.477543,358.474612 333.75293,357.982422 C333.028317,357.490232 332.385745,356.905765 331.825195,356.229004 C331.264646,355.552243 330.820314,354.786625 330.492188,353.932129 C330.164061,353.077632 330,352.124029 330,351.071289 C330,349.963862 330.23242,348.948735 330.697266,348.025879 C331.162112,347.103023 331.791012,346.310062 332.583984,345.646973 C333.376957,344.983883 334.296381,344.467775 335.342285,344.098633 C336.388189,343.72949 337.492182,343.544922 338.654297,343.544922 C339.501957,343.544922 340.264157,343.616699 340.940918,343.760254 C341.617679,343.903809 342.215818,344.08496 342.735352,344.303711 C343.254885,344.522462 343.699217,344.761717 344.068359,345.021484 C344.437502,345.281251 344.745116,345.520507 344.991211,345.739258 C345.237306,345.958009 345.415039,346.145995 345.524414,346.303223 C345.63379,346.46045 345.695312,346.539062 345.708984,346.539062 C345.791016,346.689454 345.832031,346.833007 345.832031,346.969727 C345.832031,347.161134 345.760255,347.338866 345.616699,347.50293 C345.473144,347.666993 345.285157,347.749023 345.052734,347.749023 C344.779296,347.749023 344.560548,347.632814 344.396484,347.400391 C344.382812,347.386719 344.273439,347.260255 344.068359,347.020996 C343.86328,346.781737 343.528323,346.518556 343.063477,346.231445 C342.59863,345.944335 342.000492,345.684571 341.269043,345.452148 C340.537594,345.219725 339.645513,345.103516 338.592773,345.103516 C337.635737,345.103516 336.729985,345.250487 335.875488,345.544434 C335.020992,345.83838 334.275882,346.25195 333.640137,346.785156 C333.004391,347.318362 332.498537,347.95068 332.122559,348.682129 C331.74658,349.413578 331.558594,350.216792 331.558594,351.091797 C331.558594,351.953129 331.702147,352.739254 331.989258,353.450195 C332.276369,354.161136 332.659177,354.796872 333.137695,355.357422 C333.616213,355.917972 334.169919,356.403318 334.798828,356.813477 C335.427738,357.223635 336.083981,357.56201 336.767578,357.828613 C337.451175,358.095216 338.13818,358.293456 338.828613,358.42334 C339.519046,358.553223 340.171872,358.618164 340.787109,358.618164 C341.826177,358.618164 342.841304,358.539552 343.83252,358.382324 C344.823735,358.225097 345.801265,357.927737 346.765137,357.490234 C347.729009,357.052732 348.675777,356.451176 349.605469,355.685547 C350.535161,354.919918 351.458003,353.921881 352.374023,352.691406 C353.290044,351.460931 354.195796,349.977548 355.091309,348.241211 C355.986821,346.504874 356.885738,344.454113 357.788086,342.088867 C358.061525,341.377926 358.328124,340.612309 358.587891,339.791992 C358.847658,338.971676 359.114256,338.144535 359.387695,337.310547 C359.155272,336.107416 358.987793,335.082035 358.885254,334.234375 C358.782714,333.386715 358.731445,332.68262 358.731445,332.12207 C358.731445,331.520505 358.779296,331.041994 358.875,330.686523 C358.970704,330.331053 359.093749,330.061036 359.244141,329.876465 C359.394532,329.691894 359.558593,329.575684 359.736328,329.527832 C359.914063,329.47998 360.08496,329.456055 360.249023,329.456055 C360.385743,329.456055 360.53955,329.483398 360.710449,329.538086 C360.881349,329.592774 361.038574,329.712401 361.182129,329.896973 C361.325684,330.081544 361.445312,330.351561 361.541016,330.707031 C361.636719,331.062502 361.68457,331.541013 361.68457,332.142578 C361.68457,332.798831 361.623047,333.557613 361.5,334.418945 C361.376953,335.280278 361.192384,336.230464 360.946289,337.269531 C361.124024,338.10352 361.3291,339.033198 361.561523,340.058594 C361.793946,341.08399 362.033202,342.146967 362.279297,343.247559 C362.525392,344.34815 362.778319,345.472651 363.038086,346.621094 C363.297853,347.769537 363.55078,348.89062 363.796875,349.984375 C364.04297,351.07813 364.278807,352.124018 364.504395,353.12207 C364.729982,354.120122 364.938476,355.022457 365.129883,355.829102 C365.499025,354.899409 365.950193,353.774909 366.483398,352.455566 C367.016604,351.136224 367.611325,349.734871 368.267578,348.251465 C368.923831,346.768059 369.617672,345.257332 370.349121,343.719238 C371.08057,342.181145 371.829098,340.728522 372.594727,339.361328 C373.67481,337.419912 374.666011,335.755378 375.568359,334.367676 C376.470708,332.979974 377.249997,331.834965 377.90625,330.932617 C378.562503,330.030269 379.078611,329.363772 379.45459,328.933105 C379.830568,328.502439 380.032226,328.266602 380.05957,328.225586 C380.209962,328.075195 380.39453,328 380.613281,328 C380.845704,328 381.033691,328.078612 381.177246,328.23584 C381.320801,328.393067 381.392578,328.574218 381.392578,328.779297 C381.392578,328.875 381.372071,328.970703 381.331055,329.066406 C381.331055,329.080078 381.252442,329.281736 381.095215,329.671387 C380.937987,330.061037 380.739747,330.594235 380.500488,331.270996 C380.261229,331.947757 379.998048,332.740718 379.710938,333.649902 C379.423827,334.559087 379.143556,335.536616 378.870117,336.58252 C378.596678,337.628423 378.354005,338.722162 378.14209,339.86377 C377.930175,341.005377 377.776368,342.143549 377.680664,343.27832 C377.639648,343.797854 377.605469,344.341306 377.578125,344.908691 C377.550781,345.476077 377.537109,346.046872 377.537109,346.621094 C377.537109,347.523442 377.578125,348.432613 377.660156,349.348633 C377.742188,350.264653 377.878905,351.14648 378.070312,351.994141 C378.26172,352.841801 378.521483,353.63818 378.849609,354.383301 C379.177736,355.128422 379.581052,355.781247 380.05957,356.341797 C380.538088,356.902347 381.108883,357.353514 381.771973,357.695312 C382.435062,358.037111 383.204097,358.22168 384.079102,358.249023 C384.297853,358.262695 384.472167,358.35498 384.602051,358.525879 C384.731934,358.696778 384.796875,358.877929 384.796875,359.069336 C384.796875,359.260743 384.72168,359.43164 384.571289,359.582031 C384.420898,359.732423 384.243165,359.807617 384.038086,359.807617 C383.819335,359.807617 383.600587,359.78711 383.381836,359.746094 C382.397456,359.609374 381.529301,359.325686 380.777344,358.89502 C380.025387,358.464353 379.375979,357.931156 378.829102,357.29541 C378.282224,356.659665 377.827639,355.935063 377.465332,355.121582 C377.103026,354.308101 376.812501,353.436528 376.59375,352.506836 C376.374999,351.577144 376.221192,350.609868 376.132324,349.60498 C376.043457,348.600093 375.999023,347.584966 375.999023,346.55957 C375.999023,345.342767 376.060546,344.125983 376.183594,342.90918 C376.306641,341.692377 376.470702,340.506353 376.675781,339.351074 C376.88086,338.195795 377.120116,337.07813 377.393555,335.998047 C377.666994,334.917963 377.947264,333.913091 378.234375,332.983398 Z M390.087891,358.802734 C390.087891,359.117189 389.981935,359.38037 389.77002,359.592285 C389.558104,359.8042 389.294923,359.910156 388.980469,359.910156 C388.666014,359.910156 388.402833,359.8042 388.190918,359.592285 C387.979003,359.38037 387.873047,359.117189 387.873047,358.802734 C387.873047,358.501952 387.979003,358.245607 388.190918,358.033691 C388.402833,357.821776 388.666014,357.71582 388.980469,357.71582 C389.294923,357.71582 389.558104,357.821776 389.77002,358.033691 C389.981935,358.245607 390.087891,358.501952 390.087891,358.802734 Z M437.563477,339.689453 C437.563477,339.894532 437.4917,340.079101 437.348145,340.243164 C437.204589,340.407227 437.023439,340.489258 436.804688,340.489258 C436.599608,340.489258 436.421876,340.420899 436.271484,340.28418 C436.121093,340.14746 436.032227,339.962892 436.004883,339.730469 C435.991211,339.675781 435.960449,339.416018 435.912598,338.951172 C435.864746,338.486326 435.728028,337.915531 435.502441,337.23877 C435.276854,336.562008 434.931643,335.837406 434.466797,335.064941 C434.001951,334.292477 433.362797,333.578128 432.549316,332.921875 C431.735836,332.265622 430.707037,331.718752 429.462891,331.28125 C428.218744,330.843748 426.708017,330.625 424.930664,330.625 C423.358391,330.625 421.775887,330.860837 420.183105,331.33252 C418.590324,331.804202 417.062507,332.467281 415.599609,333.321777 C414.136711,334.176274 412.769538,335.194818 411.498047,336.377441 C410.226556,337.560065 409.122563,338.862298 408.186035,340.28418 C407.249507,341.706062 406.511233,343.223625 405.971191,344.836914 C405.43115,346.450203 405.161133,348.11132 405.161133,349.820312 C405.161133,351.365242 405.373045,352.687983 405.796875,353.788574 C406.220705,354.889166 406.80859,355.788082 407.560547,356.485352 C408.312504,357.182621 409.197749,357.691893 410.216309,358.013184 C411.234868,358.334474 412.332025,358.495117 413.507812,358.495117 C415.544932,358.495117 417.448722,358.14307 419.219238,357.438965 C420.989755,356.73486 422.630364,355.784674 424.141113,354.588379 C425.651863,353.392084 427.029291,351.997567 428.273438,350.404785 C429.517584,348.812004 430.631831,347.133798 431.616211,345.370117 C431.725586,343.70214 431.920409,342.427251 432.200684,341.54541 C432.480958,340.66357 432.901364,340.222656 433.461914,340.222656 C433.776369,340.222656 434.03955,340.352538 434.251465,340.612305 C434.46338,340.872072 434.569336,341.207029 434.569336,341.617188 C434.569336,342.068362 434.453126,342.642575 434.220703,343.339844 C433.98828,344.037113 433.632815,344.843745 433.154297,345.759766 C433.113281,346.402347 433.092773,347.09277 433.092773,347.831055 C433.092773,348.911138 433.137207,350.093744 433.226074,351.378906 C433.314942,352.664069 433.455077,354.031243 433.646484,355.480469 C434.220706,355.193358 434.668455,354.984864 434.989746,354.85498 C435.311037,354.725097 435.546874,354.636231 435.697266,354.588379 C435.847657,354.540527 435.943359,354.520019 435.984375,354.526855 C436.025391,354.533691 436.05957,354.537109 436.086914,354.537109 C436.291993,354.537109 436.473144,354.608886 436.630371,354.752441 C436.787598,354.895997 436.866211,355.083983 436.866211,355.316406 C436.866211,355.48047 436.81836,355.627441 436.722656,355.757324 C436.626953,355.887208 436.497071,355.979492 436.333008,356.03418 C436.305664,356.047852 436.069826,356.140136 435.625488,356.311035 C435.18115,356.481934 434.589847,356.751951 433.851562,357.121094 C433.919922,357.859379 433.974609,358.604488 434.015625,359.356445 C434.056641,360.108402 434.077148,360.867184 434.077148,361.632812 C434.077148,363.437509 433.947267,365.160148 433.6875,366.800781 C433.427733,368.441414 433.000491,369.883783 432.405762,371.12793 C431.811032,372.372077 431.021489,373.35986 430.037109,374.091309 C429.052729,374.822758 427.842781,375.188477 426.407227,375.188477 C425.696286,375.188477 425.040042,375.065431 424.438477,374.819336 C423.836911,374.573241 423.317385,374.231448 422.879883,373.793945 C422.442381,373.356443 422.100587,372.833499 421.854492,372.225098 C421.608397,371.616696 421.485352,370.950199 421.485352,370.225586 C421.485352,369.20019 421.659666,368.188482 422.008301,367.19043 C422.356935,366.192378 422.821774,365.22852 423.402832,364.298828 C423.98389,363.369136 424.650387,362.490727 425.402344,361.663574 C426.154301,360.836422 426.926754,360.074222 427.719727,359.376953 C428.512699,358.679684 429.295406,358.064456 430.067871,357.53125 C430.840336,356.998044 431.547848,356.567384 432.19043,356.239258 C432.012694,354.872063 431.869141,353.528815 431.759766,352.209473 C431.65039,350.89013 431.582031,349.608405 431.554688,348.364258 C430.365228,350.264658 429.056159,351.939446 427.627441,353.388672 C426.198723,354.837898 424.705086,356.054683 423.146484,357.039062 C421.587883,358.023442 419.984872,358.765134 418.337402,359.26416 C416.689933,359.763186 415.052743,360.012695 413.425781,360.012695 C411.949211,360.012695 410.609381,359.79053 409.40625,359.346191 C408.203119,358.901853 407.170903,358.249028 406.30957,357.387695 C405.448238,356.526363 404.785159,355.459967 404.320312,354.188477 C403.855466,352.916986 403.623047,351.45411 403.623047,349.799805 C403.623047,348.049796 403.896482,346.323739 404.443359,344.621582 C404.990237,342.919425 405.749019,341.299324 406.719727,339.76123 C407.690435,338.223137 408.842278,336.804694 410.175293,335.505859 C411.508307,334.207025 412.964348,333.082524 414.543457,332.132324 C416.122566,331.182124 417.790519,330.437014 419.547363,329.896973 C421.304208,329.356931 423.098624,329.086914 424.930664,329.086914 C426.694345,329.086914 428.225579,329.288572 429.524414,329.691895 C430.823249,330.095217 431.927242,330.607907 432.836426,331.22998 C433.74561,331.852054 434.483884,332.528805 435.05127,333.260254 C435.618655,333.991703 436.066405,334.685544 436.394531,335.341797 C436.66797,335.902347 436.8833,336.44238 437.040527,336.961914 C437.197755,337.481448 437.313964,337.939451 437.38916,338.335938 C437.464356,338.732424 437.512207,339.05371 437.532715,339.299805 C437.553223,339.5459 437.563477,339.675781 437.563477,339.689453 Z M432.375,357.941406 C431.691403,358.324221 430.98389,358.778806 430.252441,359.305176 C429.520992,359.831546 428.810062,360.409177 428.119629,361.038086 C427.429196,361.666995 426.77637,362.343746 426.161133,363.068359 C425.545895,363.792972 425.005862,364.544918 424.541016,365.324219 C424.07617,366.10352 423.710451,366.906734 423.443848,367.733887 C423.177245,368.561039 423.043945,369.391597 423.043945,370.225586 C423.043945,370.74512 423.125976,371.213377 423.290039,371.630371 C423.454102,372.047365 423.686522,372.402831 423.987305,372.696777 C424.288087,372.990724 424.643553,373.219726 425.053711,373.383789 C425.463869,373.547852 425.915037,373.629883 426.407227,373.629883 C428.334971,373.629883 429.838862,372.60792 430.918945,370.563965 C431.999029,368.520009 432.539062,365.536152 432.539062,361.612305 C432.539062,361.024411 432.525391,360.426273 432.498047,359.817871 C432.470703,359.20947 432.429688,358.583988 432.375,357.941406 Z M441.624023,357.141602 C441.911134,357.538088 442.280271,357.855956 442.731445,358.095215 C443.182619,358.334474 443.736325,358.454102 444.392578,358.454102 C445.062503,358.454102 445.670896,358.293459 446.217773,357.972168 C446.764651,357.650877 447.26367,357.230471 447.714844,356.710938 C448.166018,356.191404 448.569334,355.610355 448.924805,354.967773 C449.280275,354.325192 449.601561,353.68262 449.888672,353.040039 C449.957032,352.889648 450.052734,352.776856 450.175781,352.70166 C450.298829,352.626464 450.435546,352.588867 450.585938,352.588867 C450.818361,352.588867 451.006347,352.670898 451.149902,352.834961 C451.293458,352.999024 451.365234,353.176757 451.365234,353.368164 C451.365234,353.436524 451.358399,353.494629 451.344727,353.54248 C451.331055,353.590332 451.310547,353.641601 451.283203,353.696289 C450.339839,355.774424 449.311041,357.339838 448.196777,358.392578 C447.082514,359.445318 445.821296,359.985351 444.413086,360.012695 C443.510738,360.012695 442.731449,359.838381 442.075195,359.489746 C441.418942,359.141112 440.878908,358.689944 440.455078,358.13623 C440.031248,357.582517 439.716798,356.957035 439.511719,356.259766 C439.30664,355.562497 439.204102,354.865238 439.204102,354.167969 C439.204102,353.4707 439.28955,352.828128 439.460449,352.240234 C439.631349,351.652341 439.87744,351.139651 440.19873,350.702148 C440.520021,350.264646 440.90283,349.922853 441.347168,349.676758 C441.791506,349.430663 442.280271,349.307617 442.813477,349.307617 C443.127931,349.307617 443.438963,349.372558 443.746582,349.502441 C444.054201,349.632325 444.331053,349.816893 444.577148,350.056152 C444.823243,350.295411 445.021484,350.585936 445.171875,350.927734 C445.322266,351.269533 445.397461,351.659177 445.397461,352.09668 C445.397461,352.657229 445.301759,353.183591 445.110352,353.675781 C444.918944,354.167971 444.655763,354.625974 444.320801,355.049805 C443.985838,355.473635 443.58594,355.863279 443.121094,356.21875 C442.656248,356.574221 442.157229,356.881835 441.624023,357.141602 Z M441.008789,355.808594 C441.432619,355.630858 441.818846,355.405275 442.16748,355.131836 C442.516115,354.858397 442.813475,354.557619 443.05957,354.229492 C443.305665,353.901366 443.49707,353.556154 443.633789,353.193848 C443.770508,352.831541 443.838867,352.465822 443.838867,352.09668 C443.838867,351.686521 443.736329,351.375489 443.53125,351.163574 C443.326171,350.951659 443.086915,350.845703 442.813477,350.845703 C442.444334,350.845703 442.129884,350.948241 441.870117,351.15332 C441.61035,351.358399 441.398438,351.624998 441.234375,351.953125 C441.070312,352.281252 440.950684,352.646971 440.875488,353.050293 C440.800293,353.453615 440.762695,353.853514 440.762695,354.25 C440.762695,354.496095 440.786621,354.755858 440.834473,355.029297 C440.882324,355.302736 440.940429,355.562499 441.008789,355.808594 Z M452.041992,350.96875 C451.987304,351.337892 451.918946,351.683104 451.836914,352.004395 C451.754882,352.325685 451.67627,352.605956 451.601074,352.845215 C451.525879,353.084474 451.460938,353.279296 451.40625,353.429688 C451.351562,353.580079 451.317383,353.662109 451.303711,353.675781 C451.166992,353.990236 450.927736,354.147461 450.585938,354.147461 C450.39453,354.147461 450.216798,354.075684 450.052734,353.932129 C449.888671,353.788574 449.806641,353.607423 449.806641,353.388672 C449.806641,353.30664 449.820312,353.245117 449.847656,353.204102 C449.875,353.163086 449.916015,353.081055 449.970703,352.958008 C450.025391,352.83496 450.09375,352.629884 450.175781,352.342773 C450.257813,352.055663 450.360351,351.611331 450.483398,351.009766 C450.250975,351.009766 450.01172,351.00293 449.765625,350.989258 C449.51953,350.975586 449.290528,350.927735 449.078613,350.845703 C448.866698,350.763671 448.692383,350.63379 448.555664,350.456055 C448.418945,350.278319 448.350586,350.032228 448.350586,349.717773 C448.350586,349.48535 448.415527,349.1709 448.54541,348.774414 C448.675294,348.377928 448.849608,347.988283 449.068359,347.605469 C449.28711,347.222654 449.533202,346.891115 449.806641,346.61084 C450.080079,346.330565 450.353514,346.19043 450.626953,346.19043 C450.941408,346.19043 451.197753,346.306639 451.395996,346.539062 C451.594239,346.771486 451.748046,347.055174 451.857422,347.390137 C451.966797,347.725099 452.04541,348.077147 452.093262,348.446289 C452.141114,348.815432 452.165039,349.136717 452.165039,349.410156 C452.397462,349.410156 452.626464,349.406738 452.852051,349.399902 C453.077638,349.393066 453.292968,349.389648 453.498047,349.389648 C454.277348,349.389648 454.872068,349.560545 455.282227,349.902344 C455.692385,350.244142 455.897461,350.804684 455.897461,351.583984 C455.897461,351.898439 455.876953,352.226561 455.835938,352.568359 C455.794922,352.910158 455.747071,353.262205 455.692383,353.624512 C455.637695,353.986818 455.589844,354.345701 455.548828,354.701172 C455.507812,355.056642 455.487305,355.405272 455.487305,355.74707 C455.487305,356.23926 455.555663,356.645994 455.692383,356.967285 C455.829102,357.288576 455.999999,357.544921 456.205078,357.736328 C456.410157,357.927735 456.628905,358.061035 456.861328,358.13623 C457.093751,358.211426 457.305663,358.249023 457.49707,358.249023 C458.084964,358.249023 458.638669,358.057619 459.158203,357.674805 C459.677737,357.29199 460.156248,356.830569 460.59375,356.290527 C461.031252,355.750486 461.424315,355.179691 461.772949,354.578125 C462.121584,353.976559 462.412108,353.450198 462.644531,352.999023 C462.712891,352.875976 462.808593,352.780274 462.931641,352.711914 C463.054688,352.643554 463.18457,352.609375 463.321289,352.609375 C463.567384,352.609375 463.758788,352.687987 463.895508,352.845215 C464.032227,353.002442 464.100586,353.176757 464.100586,353.368164 C464.100586,353.504883 464.073242,353.627929 464.018555,353.737305 C463.7041,354.297854 463.338381,354.930172 462.921387,355.634277 C462.504392,356.338382 462.0293,356.998044 461.496094,357.613281 C460.962888,358.228519 460.364749,358.748045 459.70166,359.171875 C459.038571,359.595705 458.310551,359.807617 457.517578,359.807617 C457.025388,359.807617 456.560549,359.715333 456.123047,359.530762 C455.685545,359.34619 455.306154,359.079592 454.984863,358.730957 C454.663573,358.382322 454.407228,357.951663 454.21582,357.438965 C454.024413,356.926267 453.928711,356.348636 453.928711,355.706055 C453.928711,355.022458 453.99707,354.342289 454.133789,353.665527 C454.270508,352.988766 454.338867,352.342777 454.338867,351.727539 C454.338867,351.467772 454.280762,351.27295 454.164551,351.143066 C454.048339,351.013183 453.791994,350.948242 453.395508,350.948242 L452.77002,350.948242 C452.544432,350.948242 452.301759,350.955078 452.041992,350.96875 Z M450.667969,349.451172 C450.667969,349.355468 450.664551,349.229005 450.657715,349.071777 C450.650879,348.91455 450.637207,348.760743 450.616699,348.610352 C450.596191,348.45996 450.568848,348.330079 450.534668,348.220703 C450.500488,348.111328 450.462891,348.056641 450.421875,348.056641 C450.380859,348.056641 450.32959,348.10791 450.268066,348.210449 C450.206543,348.312989 450.141602,348.436034 450.073242,348.57959 C450.004882,348.723145 449.94336,348.876952 449.888672,349.041016 C449.833984,349.205079 449.792969,349.341796 449.765625,349.451172 L450.667969,349.451172 Z M478.476562,353.675781 C478.421875,353.785157 478.309083,354.014158 478.138184,354.362793 C477.967284,354.711428 477.748536,355.111326 477.481934,355.5625 C477.215331,356.013674 476.904299,356.485349 476.548828,356.977539 C476.193358,357.469729 475.796877,357.920896 475.359375,358.331055 C474.921873,358.741213 474.450198,359.079589 473.944336,359.346191 C473.438474,359.612794 472.905276,359.746094 472.344727,359.746094 C471.551754,359.746094 470.885257,359.493167 470.345215,358.987305 C469.805173,358.481443 469.412111,357.845707 469.166016,357.080078 C468.70117,357.859379 468.147464,358.478025 467.504883,358.936035 C466.862301,359.394045 466.21973,359.623047 465.577148,359.623047 C465.071287,359.623047 464.613283,359.530763 464.203125,359.346191 C463.792967,359.16162 463.444337,358.901857 463.157227,358.566895 C462.870116,358.231932 462.64795,357.838869 462.490723,357.387695 C462.333495,356.936521 462.254883,356.444339 462.254883,355.911133 C462.254883,354.844721 462.436033,353.904789 462.79834,353.091309 C463.160646,352.277828 463.622068,351.597659 464.182617,351.050781 C464.743167,350.503904 465.361813,350.093751 466.038574,349.820312 C466.715335,349.546874 467.368161,349.410156 467.99707,349.410156 C468.420901,349.410156 468.810545,349.468261 469.166016,349.584473 C469.521486,349.700684 469.825682,349.827148 470.078613,349.963867 C470.331544,350.100587 470.526367,350.22705 470.663086,350.343262 C470.799805,350.459473 470.875,350.524414 470.888672,350.538086 C471.039063,350.715821 471.114258,350.90039 471.114258,351.091797 C471.114258,351.296876 471.039063,351.478027 470.888672,351.635254 C470.73828,351.792481 470.560548,351.871094 470.355469,351.871094 C470.136718,351.871094 469.952149,351.795899 469.801758,351.645508 C469.774414,351.618164 469.712891,351.566895 469.617188,351.491699 C469.521484,351.416504 469.391602,351.337891 469.227539,351.255859 C469.063476,351.173828 468.868653,351.102051 468.643066,351.040527 C468.417479,350.979004 468.161134,350.948242 467.874023,350.948242 C467.450193,350.948242 466.999026,351.043944 466.520508,351.235352 C466.04199,351.426759 465.604494,351.724119 465.208008,352.127441 C464.811521,352.530764 464.479982,353.036618 464.213379,353.64502 C463.946776,354.253421 463.813477,354.974605 463.813477,355.808594 C463.813477,356.068361 463.84082,356.331542 463.895508,356.598145 C463.950196,356.864747 464.045898,357.107421 464.182617,357.326172 C464.319337,357.544923 464.503905,357.722656 464.736328,357.859375 C464.968751,357.996094 465.255858,358.064453 465.597656,358.064453 C465.843751,358.064453 466.12744,357.982423 466.44873,357.818359 C466.770021,357.654296 467.077635,357.401369 467.371582,357.05957 C467.665529,356.717772 467.932128,356.287112 468.171387,355.767578 C468.410646,355.248044 468.578125,354.632816 468.673828,353.921875 C468.701172,353.730468 468.790038,353.569825 468.94043,353.439941 C469.090821,353.310058 469.268554,353.245117 469.473633,353.245117 C469.66504,353.245117 469.832519,353.320312 469.976074,353.470703 C470.11963,353.621095 470.198242,353.791991 470.211914,353.983398 C470.225586,354.243165 470.252929,354.608884 470.293945,355.080566 C470.334961,355.552248 470.427245,356.020505 470.570801,356.485352 C470.714356,356.950198 470.929686,357.353514 471.216797,357.695312 C471.503908,358.037111 471.900388,358.208008 472.40625,358.208008 C472.734377,358.208008 473.05908,358.119142 473.380371,357.941406 C473.701662,357.763671 474.016112,357.527834 474.32373,357.233887 C474.631349,356.93994 474.925292,356.604982 475.205566,356.229004 C475.485841,355.853025 475.742186,355.473635 475.974609,355.09082 C476.207032,354.708006 476.412108,354.338869 476.589844,353.983398 C476.767579,353.627928 476.917968,353.320314 477.041016,353.060547 C477.109375,352.910156 477.208495,352.793946 477.338379,352.711914 C477.468262,352.629882 477.608398,352.588867 477.758789,352.588867 C477.991212,352.588867 478.179199,352.674316 478.322754,352.845215 C478.466309,353.016114 478.538086,353.197265 478.538086,353.388672 C478.538086,353.484375 478.517578,353.580078 478.476562,353.675781 Z M488.730469,353.716797 C488.580077,354.031252 488.392091,354.403806 488.166504,354.834473 C487.940917,355.265139 487.684572,355.712888 487.397461,356.177734 C487.11035,356.64258 486.789064,357.104002 486.433594,357.562012 C486.078123,358.020022 485.691897,358.430174 485.274902,358.79248 C484.857908,359.154787 484.413577,359.448729 483.941895,359.674316 C483.470212,359.899903 482.967776,360.012695 482.43457,360.012695 C481.614254,360.012695 480.910159,359.759768 480.322266,359.253906 C479.734372,358.748044 479.235354,358.084965 478.825195,357.264648 C478.415037,356.444332 478.083497,355.511236 477.830566,354.465332 C477.577635,353.419428 477.382813,352.353033 477.246094,351.266113 C477.109374,350.179194 477.01709,349.123052 476.969238,348.097656 C476.921386,347.07226 476.897461,346.16309 476.897461,345.370117 C476.897461,344.221674 476.935058,343.032233 477.010254,341.801758 C477.08545,340.571283 477.205077,339.36817 477.369141,338.192383 C477.533204,337.016596 477.741698,335.902349 477.994629,334.849609 C478.24756,333.79687 478.548338,332.874027 478.896973,332.081055 C479.245607,331.288082 479.645506,330.659182 480.09668,330.194336 C480.547854,329.72949 481.060544,329.49707 481.634766,329.49707 C482.08594,329.49707 482.492674,329.603026 482.85498,329.814941 C483.217287,330.026857 483.521483,330.372068 483.767578,330.850586 C484.013673,331.329104 484.205077,331.951168 484.341797,332.716797 C484.478516,333.482426 484.546875,334.41894 484.546875,335.526367 C484.546875,336.893562 484.403322,338.305169 484.116211,339.76123 C483.8291,341.217292 483.439456,342.683586 482.947266,344.160156 C482.455076,345.636726 481.874027,347.109856 481.204102,348.57959 C480.534176,350.049324 479.81641,351.481438 479.050781,352.875977 C479.39258,354.612313 479.850583,355.976069 480.424805,356.967285 C480.999026,357.958501 481.689449,358.454102 482.496094,358.454102 C483.042971,358.454102 483.569333,358.238772 484.075195,357.808105 C484.581057,357.377439 485.045896,356.868167 485.469727,356.280273 C485.893557,355.69238 486.266112,355.094241 486.587402,354.48584 C486.908693,353.877438 487.158202,353.388674 487.335938,353.019531 C487.404297,352.882812 487.499999,352.776856 487.623047,352.70166 C487.746094,352.626464 487.882812,352.588867 488.033203,352.588867 C488.265626,352.588867 488.453613,352.670898 488.597168,352.834961 C488.740723,352.999024 488.8125,353.183593 488.8125,353.388672 C488.8125,353.470704 488.785157,353.580077 488.730469,353.716797 Z M478.456055,345.472656 C478.456055,346.347661 478.476562,347.188473 478.517578,347.995117 C478.558594,348.801762 478.613281,349.574215 478.681641,350.3125 C479.255862,349.205073 479.802732,348.025885 480.322266,346.774902 C480.841799,345.52392 481.299803,344.259284 481.696289,342.980957 C482.092775,341.70263 482.410643,340.431159 482.649902,339.166504 C482.889161,337.901849 483.008789,336.695318 483.008789,335.546875 C483.008789,333.933586 482.878908,332.778324 482.619141,332.081055 C482.359374,331.383786 482.010744,331.035156 481.573242,331.035156 C481.286131,331.035156 481.009279,331.233396 480.742676,331.629883 C480.476073,332.026369 480.226564,332.566403 479.994141,333.25 C479.761718,333.933597 479.549806,334.74023 479.358398,335.669922 C479.166991,336.599614 479.006348,337.597651 478.876465,338.664062 C478.746581,339.730474 478.644043,340.844721 478.568848,342.006836 C478.493652,343.168951 478.456055,344.324213 478.456055,345.472656 Z M499.004883,353.716797 C498.854491,354.031252 498.666505,354.403806 498.440918,354.834473 C498.215331,355.265139 497.958986,355.712888 497.671875,356.177734 C497.384764,356.64258 497.063478,357.104002 496.708008,357.562012 C496.352537,358.020022 495.966311,358.430174 495.549316,358.79248 C495.132322,359.154787 494.687991,359.448729 494.216309,359.674316 C493.744627,359.899903 493.24219,360.012695 492.708984,360.012695 C491.888668,360.012695 491.184573,359.759768 490.59668,359.253906 C490.008786,358.748044 489.509768,358.084965 489.099609,357.264648 C488.689451,356.444332 488.357911,355.511236 488.10498,354.465332 C487.85205,353.419428 487.657227,352.353033 487.520508,351.266113 C487.383788,350.179194 487.291504,349.123052 487.243652,348.097656 C487.195801,347.07226 487.171875,346.16309 487.171875,345.370117 C487.171875,344.221674 487.209472,343.032233 487.284668,341.801758 C487.359864,340.571283 487.479491,339.36817 487.643555,338.192383 C487.807618,337.016596 488.016112,335.902349 488.269043,334.849609 C488.521974,333.79687 488.822752,332.874027 489.171387,332.081055 C489.520021,331.288082 489.91992,330.659182 490.371094,330.194336 C490.822268,329.72949 491.334958,329.49707 491.90918,329.49707 C492.360354,329.49707 492.767088,329.603026 493.129395,329.814941 C493.491701,330.026857 493.795897,330.372068 494.041992,330.850586 C494.288087,331.329104 494.479492,331.951168 494.616211,332.716797 C494.75293,333.482426 494.821289,334.41894 494.821289,335.526367 C494.821289,336.893562 494.677736,338.305169 494.390625,339.76123 C494.103514,341.217292 493.71387,342.683586 493.22168,344.160156 C492.72949,345.636726 492.148441,347.109856 491.478516,348.57959 C490.80859,350.049324 490.090824,351.481438 489.325195,352.875977 C489.666994,354.612313 490.124997,355.976069 490.699219,356.967285 C491.27344,357.958501 491.963863,358.454102 492.770508,358.454102 C493.317386,358.454102 493.843747,358.238772 494.349609,357.808105 C494.855471,357.377439 495.32031,356.868167 495.744141,356.280273 C496.167971,355.69238 496.540526,355.094241 496.861816,354.48584 C497.183107,353.877438 497.432616,353.388674 497.610352,353.019531 C497.678711,352.882812 497.774413,352.776856 497.897461,352.70166 C498.020508,352.626464 498.157226,352.588867 498.307617,352.588867 C498.54004,352.588867 498.728027,352.670898 498.871582,352.834961 C499.015137,352.999024 499.086914,353.183593 499.086914,353.388672 C499.086914,353.470704 499.059571,353.580077 499.004883,353.716797 Z M488.730469,345.472656 C488.730469,346.347661 488.750976,347.188473 488.791992,347.995117 C488.833008,348.801762 488.887695,349.574215 488.956055,350.3125 C489.530276,349.205073 490.077146,348.025885 490.59668,346.774902 C491.116214,345.52392 491.574217,344.259284 491.970703,342.980957 C492.367189,341.70263 492.685057,340.431159 492.924316,339.166504 C493.163575,337.901849 493.283203,336.695318 493.283203,335.546875 C493.283203,333.933586 493.153322,332.778324 492.893555,332.081055 C492.633788,331.383786 492.285158,331.035156 491.847656,331.035156 C491.560545,331.035156 491.283693,331.233396 491.01709,331.629883 C490.750487,332.026369 490.500978,332.566403 490.268555,333.25 C490.036132,333.933597 489.82422,334.74023 489.632812,335.669922 C489.441405,336.599614 489.280762,337.597651 489.150879,338.664062 C489.020995,339.730474 488.918457,340.844721 488.843262,342.006836 C488.768066,343.168951 488.730469,344.324213 488.730469,345.472656 Z M505.567383,353.429688 C506.237308,356.587906 507.208001,358.166992 508.479492,358.166992 C508.971682,358.166992 509.443357,357.985842 509.894531,357.623535 C510.345705,357.261229 510.766111,356.816897 511.155762,356.290527 C511.545412,355.764158 511.890623,355.207034 512.191406,354.619141 C512.492189,354.031247 512.73828,353.518557 512.929688,353.081055 C513.066407,352.752928 513.305662,352.588867 513.647461,352.588867 C513.866212,352.588867 514.05078,352.670898 514.201172,352.834961 C514.351563,352.999024 514.426758,353.176757 514.426758,353.368164 C514.426758,353.47754 514.40625,353.573242 514.365234,353.655273 C514.269531,353.887696 514.129395,354.198729 513.944824,354.588379 C513.760253,354.978029 513.534669,355.395017 513.268066,355.839355 C513.001464,356.283694 512.704103,356.738279 512.375977,357.203125 C512.04785,357.667971 511.685549,358.084959 511.289062,358.454102 C510.892576,358.823244 510.47217,359.12744 510.027832,359.366699 C509.583494,359.605958 509.115237,359.725586 508.623047,359.725586 C507.707027,359.725586 506.920902,359.407718 506.264648,358.771973 C505.608395,358.136227 505.041018,357.086921 504.5625,355.624023 C503.906247,357.018562 503.243167,358.03027 502.573242,358.65918 C501.903317,359.288089 501.178715,359.602539 500.399414,359.602539 C499.989256,359.602539 499.592775,359.537598 499.209961,359.407715 C498.827147,359.277831 498.492189,359.062502 498.205078,358.761719 C497.917967,358.460936 497.685548,358.074709 497.507812,357.603027 C497.330077,357.131345 497.241211,356.553714 497.241211,355.870117 C497.241211,354.926753 497.405272,354.058598 497.733398,353.265625 C498.061525,352.472652 498.485349,351.792483 499.004883,351.225098 C499.524417,350.657712 500.102048,350.216798 500.737793,349.902344 C501.373538,349.587889 502.005856,349.430664 502.634766,349.430664 C502.839845,349.430664 503.017577,349.502441 503.167969,349.645996 C503.31836,349.789551 503.393555,349.970702 503.393555,350.189453 C503.393555,350.38086 503.332032,350.551757 503.208984,350.702148 C503.085937,350.85254 502.921876,350.941406 502.716797,350.96875 C502.306639,351.023438 501.869143,351.153319 501.404297,351.358398 C500.939451,351.563478 500.512209,351.860838 500.122559,352.250488 C499.732908,352.640139 499.411622,353.135739 499.158691,353.737305 C498.90576,354.33887 498.779297,355.056636 498.779297,355.890625 C498.779297,356.574222 498.919432,357.10742 499.199707,357.490234 C499.479982,357.873049 499.886716,358.064453 500.419922,358.064453 C500.638673,358.064453 500.871093,358.006348 501.117188,357.890137 C501.363282,357.773925 501.626463,357.544924 501.906738,357.203125 C502.187013,356.861326 502.494627,356.37598 502.82959,355.74707 C503.164552,355.118161 503.537107,354.291021 503.947266,353.265625 C503.714843,352.062494 503.502931,350.674813 503.311523,349.102539 C503.120116,347.530266 503.024414,345.773447 503.024414,343.832031 C503.024414,342.984371 503.051758,342.099126 503.106445,341.17627 C503.161133,340.253413 503.249999,339.351079 503.373047,338.469238 C503.496094,337.587398 503.660155,336.750004 503.865234,335.957031 C504.070314,335.164059 504.319823,334.4668 504.61377,333.865234 C504.907716,333.263669 505.252928,332.788576 505.649414,332.439941 C506.0459,332.091307 506.497068,331.916992 507.00293,331.916992 C507.454104,331.916992 507.836912,332.040038 508.151367,332.286133 C508.465822,332.532228 508.722167,332.874021 508.92041,333.311523 C509.118653,333.749026 509.265625,334.275388 509.361328,334.890625 C509.457032,335.505862 509.504883,336.182613 509.504883,336.920898 C509.504883,338.506844 509.368165,340.092766 509.094727,341.678711 C508.821288,343.264656 508.482912,344.782219 508.07959,346.231445 C507.676268,347.680671 507.249026,349.020502 506.797852,350.250977 C506.346677,351.481451 505.936525,352.541011 505.567383,353.429688 Z M507.966797,336.900391 C507.966797,336.558592 507.956543,336.189455 507.936035,335.792969 C507.915527,335.396482 507.867676,335.023928 507.79248,334.675293 C507.717285,334.326658 507.618165,334.036134 507.495117,333.803711 C507.37207,333.571288 507.208009,333.455078 507.00293,333.455078 C506.661131,333.455078 506.343263,333.755856 506.049316,334.357422 C505.75537,334.958987 505.499025,335.74853 505.280273,336.726074 C505.061522,337.703618 504.887208,338.811029 504.757324,340.04834 C504.627441,341.285651 504.5625,342.533197 504.5625,343.791016 C504.5625,344.994147 504.610351,346.19726 504.706055,347.400391 C504.801758,348.603522 504.911132,349.676753 505.03418,350.620117 C505.430666,349.567378 505.806639,348.483892 506.162109,347.369629 C506.51758,346.255366 506.828612,345.117193 507.095215,343.955078 C507.361818,342.792963 507.57373,341.620611 507.730957,340.437988 C507.888184,339.255365 507.966797,338.076178 507.966797,336.900391 Z M516.292969,343.298828 C516.292969,343.818362 516.111818,344.259276 515.749512,344.621582 C515.387205,344.983889 514.946292,345.165039 514.426758,345.165039 C513.907224,345.165039 513.46631,344.983889 513.104004,344.621582 C512.741697,344.259276 512.560547,343.818362 512.560547,343.298828 C512.560547,343.039061 512.608398,342.796388 512.704102,342.570801 C512.799805,342.345214 512.933105,342.146974 513.104004,341.976074 C513.274903,341.805175 513.473143,341.671875 513.69873,341.576172 C513.924318,341.480468 514.166991,341.432617 514.426758,341.432617 C514.686525,341.432617 514.929198,341.480468 515.154785,341.576172 C515.380372,341.671875 515.578612,341.805175 515.749512,341.976074 C515.920411,342.146974 516.05371,342.345214 516.149414,342.570801 C516.245118,342.796388 516.292969,343.039061 516.292969,343.298828 Z M512.970703,355.316406 C512.970703,353.347646 513.093749,351.385752 513.339844,349.430664 C513.367188,349.239257 513.452636,349.071778 513.596191,348.928223 C513.739747,348.784667 513.927733,348.712891 514.160156,348.712891 C514.365235,348.712891 514.536132,348.791503 514.672852,348.94873 C514.809571,349.105958 514.87793,349.287108 514.87793,349.492188 C514.87793,349.574219 514.86084,349.82031 514.82666,350.230469 C514.79248,350.640627 514.751465,351.129392 514.703613,351.696777 C514.655761,352.264163 514.614746,352.865719 514.580566,353.501465 C514.546387,354.13721 514.529297,354.721677 514.529297,355.254883 C514.529297,355.979496 514.601074,356.563963 514.744629,357.008301 C514.888184,357.452639 515.072753,357.79785 515.29834,358.043945 C515.523927,358.29004 515.763182,358.454101 516.016113,358.536133 C516.269044,358.618164 516.511718,358.65918 516.744141,358.65918 C517.126955,358.65918 517.523435,358.522462 517.933594,358.249023 C518.343752,357.975585 518.764158,357.592776 519.194824,357.100586 C519.62549,356.608396 520.059568,356.017093 520.49707,355.32666 C520.934573,354.636227 521.365232,353.867192 521.789062,353.019531 C521.857422,352.882812 521.953124,352.776856 522.076172,352.70166 C522.199219,352.626464 522.335937,352.588867 522.486328,352.588867 C522.705079,352.588867 522.88623,352.670898 523.029785,352.834961 C523.173341,352.999024 523.245117,353.176757 523.245117,353.368164 C523.245117,353.504883 523.217774,353.621093 523.163086,353.716797 C522.999023,354.031252 522.793947,354.41406 522.547852,354.865234 C522.301757,355.316409 522.021486,355.781248 521.707031,356.259766 C521.392577,356.738284 521.047365,357.213377 520.671387,357.685059 C520.295408,358.156741 519.89551,358.580565 519.47168,358.956543 C519.047849,359.332521 518.603518,359.636718 518.138672,359.869141 C517.673826,360.101564 517.202151,360.217773 516.723633,360.217773 C516.108395,360.217773 515.568362,360.087892 515.103516,359.828125 C514.63867,359.568358 514.245607,359.219729 513.924316,358.782227 C513.603026,358.344724 513.36377,357.828616 513.206543,357.233887 C513.049316,356.639157 512.970703,356.000003 512.970703,355.316406 Z M515.144531,343.298828 C515.144531,343.107421 515.072755,342.939942 514.929199,342.796387 C514.785644,342.652831 514.618165,342.581055 514.426758,342.581055 C514.235351,342.581055 514.07129,342.652831 513.93457,342.796387 C513.797851,342.939942 513.729492,343.107421 513.729492,343.298828 C513.729492,343.490235 513.797851,343.654296 513.93457,343.791016 C514.07129,343.927735 514.235351,343.996094 514.426758,343.996094 C514.618165,343.996094 514.785644,343.927735 514.929199,343.791016 C515.072755,343.654296 515.144531,343.490235 515.144531,343.298828 Z M526.321289,357.551758 C526.54004,357.100584 526.792967,356.604983 527.080078,356.064941 C527.367189,355.5249 527.674803,354.97803 528.00293,354.424316 C528.331056,353.870603 528.676268,353.320315 529.038574,352.773438 C529.400881,352.22656 529.780271,351.707034 530.176758,351.214844 C530.573244,350.736326 530.973143,350.391114 531.376465,350.179199 C531.779787,349.967284 532.159178,349.861328 532.514648,349.861328 C533.225589,349.861328 533.751951,350.121091 534.09375,350.640625 C534.435549,351.160159 534.606445,351.802731 534.606445,352.568359 C534.606445,352.746095 534.596192,352.961425 534.575684,353.214355 C534.555176,353.467286 534.534668,353.737303 534.51416,354.024414 C534.493652,354.311525 534.473145,354.602049 534.452637,354.895996 C534.432129,355.189943 534.421875,355.466796 534.421875,355.726562 C534.421875,356.054689 534.438965,356.369139 534.473145,356.669922 C534.507324,356.970705 534.572265,357.233886 534.667969,357.459473 C534.763672,357.68506 534.90039,357.862792 535.078125,357.992676 C535.25586,358.122559 535.48828,358.1875 535.775391,358.1875 C536.294924,358.1875 536.800779,357.985842 537.292969,357.58252 C537.785159,357.179197 538.239744,356.700686 538.656738,356.146973 C539.073733,355.593259 539.436034,355.0293 539.743652,354.455078 C540.051271,353.880857 540.280273,353.416017 540.430664,353.060547 C540.499024,352.910155 540.598144,352.793946 540.728027,352.711914 C540.857911,352.629882 540.998046,352.588867 541.148438,352.588867 C541.380861,352.588867 541.568847,352.674316 541.712402,352.845215 C541.855958,353.016114 541.927734,353.197265 541.927734,353.388672 C541.927734,353.484375 541.907227,353.580078 541.866211,353.675781 C541.811523,353.785157 541.702149,354.01074 541.538086,354.352539 C541.374023,354.694338 541.158693,355.0874 540.89209,355.531738 C540.625487,355.976076 540.314455,356.447751 539.958984,356.946777 C539.603514,357.445803 539.210451,357.900389 538.779785,358.310547 C538.349119,358.720705 537.88428,359.062499 537.385254,359.335938 C536.886228,359.609376 536.363284,359.746094 535.816406,359.746094 C535.201169,359.746094 534.70215,359.626466 534.319336,359.387207 C533.936522,359.147948 533.635743,358.833498 533.416992,358.443848 C533.198241,358.054197 533.05127,357.623538 532.976074,357.151855 C532.900879,356.680173 532.863281,356.205081 532.863281,355.726562 C532.863281,355.521483 532.873535,355.289064 532.894043,355.029297 C532.914551,354.76953 532.941894,354.496095 532.976074,354.208984 C533.010254,353.921874 533.037598,353.634767 533.058105,353.347656 C533.078613,353.060545 533.088867,352.787111 533.088867,352.527344 C533.088867,352.089842 533.020508,351.792481 532.883789,351.635254 C532.74707,351.478027 532.624024,351.399414 532.514648,351.399414 C532.295897,351.399414 532.046388,351.525878 531.766113,351.778809 C531.485838,352.03174 531.191896,352.363279 530.884277,352.773438 C530.576659,353.183596 530.262209,353.645017 529.940918,354.157715 C529.619627,354.670413 529.318849,355.179685 529.038574,355.685547 C528.758299,356.191409 528.498536,356.673338 528.259277,357.131348 C528.020018,357.589358 527.832032,357.968748 527.695312,358.269531 C527.421874,358.843753 527.148439,359.229979 526.875,359.428223 C526.601561,359.626466 526.32129,359.725586 526.03418,359.725586 C525.637693,359.725586 525.319825,359.605958 525.080566,359.366699 C524.841307,359.12744 524.72168,358.789065 524.72168,358.351562 C524.72168,358.255859 524.735351,358.067872 524.762695,357.787598 C524.790039,357.507323 524.824219,357.172365 524.865234,356.782715 C524.90625,356.393064 524.947265,355.972659 524.988281,355.521484 C525.029297,355.07031 525.070312,354.622561 525.111328,354.178223 C525.152344,353.733884 525.186523,353.320314 525.213867,352.9375 C525.241211,352.554686 525.254883,352.2334 525.254883,351.973633 C525.254883,351.631834 525.241211,351.303713 525.213867,350.989258 C525.186523,350.674803 525.131836,350.483399 525.049805,350.415039 C524.926757,350.456055 524.708009,350.7124 524.393555,351.184082 C524.0791,351.655764 523.675784,352.486322 523.183594,353.675781 C523.115234,353.826173 523.012696,353.942382 522.875977,354.024414 C522.739257,354.106446 522.595704,354.147461 522.445312,354.147461 C522.212889,354.147461 522.028321,354.068848 521.891602,353.911621 C521.754882,353.754394 521.686523,353.573243 521.686523,353.368164 C521.686523,353.27246 521.707031,353.169922 521.748047,353.060547 C522.363284,351.597649 522.940915,350.521 523.480957,349.830566 C524.020999,349.140133 524.557615,348.794922 525.09082,348.794922 C525.405275,348.794922 525.671874,348.873534 525.890625,349.030762 C526.109376,349.187989 526.283691,349.396483 526.413574,349.65625 C526.543458,349.916017 526.63916,350.203123 526.700684,350.517578 C526.762207,350.832033 526.792969,351.153319 526.792969,351.481445 C526.792969,351.72754 526.775879,352.110349 526.741699,352.629883 C526.707519,353.149417 526.663086,353.70654 526.608398,354.30127 C526.553711,354.895999 526.502442,355.487302 526.45459,356.075195 C526.406738,356.663089 526.362305,357.155271 526.321289,357.551758 Z M548.080078,359.68457 C548.558596,359.206052 549.043943,358.717288 549.536133,358.218262 C550.028323,357.719236 550.506834,357.196292 550.97168,356.649414 C551.436526,356.102536 551.870603,355.531741 552.273926,354.937012 C552.677248,354.342282 553.036131,353.709964 553.350586,353.040039 C553.418946,352.889648 553.514648,352.776856 553.637695,352.70166 C553.760743,352.626464 553.89746,352.588867 554.047852,352.588867 C554.280275,352.588867 554.468261,352.670898 554.611816,352.834961 C554.755372,352.999024 554.827148,353.183593 554.827148,353.388672 C554.827148,353.498047 554.806641,353.600585 554.765625,353.696289 C554.341795,354.584965 553.856448,355.398434 553.30957,356.136719 C552.762693,356.875004 552.18848,357.57568 551.586914,358.23877 C550.985349,358.901859 550.376956,359.54443 549.761719,360.166504 C549.146481,360.788577 548.558597,361.414059 547.998047,362.042969 C547.943359,362.986333 547.943359,363.933101 547.998047,364.883301 C548.052735,365.833501 548.080078,366.841792 548.080078,367.908203 C548.080078,368.783208 548.052735,369.658199 547.998047,370.533203 C547.943359,371.408208 547.854493,372.245601 547.731445,373.04541 C547.608398,373.845219 547.440919,374.593747 547.229004,375.291016 C547.017089,375.988285 546.747072,376.593259 546.418945,377.105957 C546.090819,377.618655 545.70801,378.021971 545.270508,378.315918 C544.833006,378.609865 544.320315,378.756836 543.732422,378.756836 C542.761714,378.756836 542.016604,378.421878 541.49707,377.751953 C540.977536,377.082028 540.717773,376.145514 540.717773,374.942383 C540.717773,374.28613 540.78955,373.582035 540.933105,372.830078 C541.076661,372.078121 541.278319,371.30225 541.538086,370.502441 C541.797853,369.702633 542.108885,368.892582 542.471191,368.072266 C542.833498,367.251949 543.22656,366.452152 543.650391,365.672852 C544.074221,364.893551 544.525388,364.151859 545.003906,363.447754 C545.482424,362.743649 545.967771,362.104495 546.459961,361.530273 C546.487305,360.87402 546.518066,360.193851 546.552246,359.489746 C546.586426,358.785641 546.624023,358.132816 546.665039,357.53125 C546.309569,358.160159 545.868655,358.666014 545.342285,359.048828 C544.815915,359.431643 544.238284,359.623047 543.609375,359.623047 C542.570307,359.623047 541.756839,359.274418 541.168945,358.577148 C540.581052,357.879879 540.287109,356.922858 540.287109,355.706055 C540.287109,354.817378 540.372558,354.007328 540.543457,353.275879 C540.714356,352.54443 540.898925,351.91553 541.097168,351.38916 C541.295411,350.86279 541.476562,350.459474 541.640625,350.179199 C541.804688,349.898924 541.886719,349.765625 541.886719,349.779297 C542.03711,349.546874 542.249022,349.430664 542.522461,349.430664 C542.754884,349.430664 542.94287,349.509277 543.086426,349.666504 C543.229981,349.823731 543.301758,350.004882 543.301758,350.209961 C543.301758,350.360352 543.260743,350.49707 543.178711,350.620117 C543.192383,350.606445 543.127442,350.719237 542.983887,350.958496 C542.840331,351.197755 542.683106,351.542966 542.512207,351.994141 C542.341308,352.445315 542.184083,352.985348 542.040527,353.614258 C541.896972,354.243167 541.825195,354.93359 541.825195,355.685547 C541.825195,356.437504 541.961913,357.025389 542.235352,357.449219 C542.50879,357.873049 542.953122,358.084961 543.568359,358.084961 C544.34766,358.084961 545.051755,357.50733 545.680664,356.352051 C546.309573,355.196772 546.842771,353.518566 547.280273,351.317383 C547.307617,351.139648 547.389648,350.992676 547.526367,350.876465 C547.663087,350.760253 547.827147,350.702148 548.018555,350.702148 C548.237306,350.702148 548.421874,350.777343 548.572266,350.927734 C548.722657,351.078126 548.797852,351.262694 548.797852,351.481445 C548.797852,351.522461 548.770508,351.765134 548.71582,352.209473 C548.661133,352.653811 548.596192,353.245113 548.520996,353.983398 C548.4458,354.721683 548.367188,355.579585 548.285156,356.557129 C548.203125,357.534673 548.134766,358.577143 548.080078,359.68457 Z M546.439453,364.032227 C545.824216,364.920903 545.260256,365.857417 544.747559,366.841797 C544.234861,367.826177 543.793947,368.803706 543.424805,369.774414 C543.055662,370.745122 542.768556,371.6748 542.563477,372.563477 C542.358397,373.452153 542.255859,374.245114 542.255859,374.942383 C542.255859,375.653324 542.372069,376.210447 542.604492,376.61377 C542.836915,377.017092 543.206052,377.21875 543.711914,377.21875 C544.163088,377.21875 544.562987,376.996584 544.911621,376.552246 C545.260256,376.107908 545.554198,375.47559 545.793457,374.655273 C546.032716,373.834957 546.213867,372.840338 546.336914,371.671387 C546.459962,370.502436 546.521484,369.193367 546.521484,367.744141 C546.521484,367.156247 546.511231,366.561526 546.490723,365.959961 C546.470215,365.358395 546.453125,364.715824 546.439453,364.032227 Z" id="M.Geralldiny"></path>
            </g>
        </g>
    </g>
</svg>