<?xml version="1.0" encoding="UTF-8"?>
<svg width="28px" height="28px" viewBox="0 0 28 28" version="1.1" xmlns="http://www.w3.org/2000/svg" xmlns:xlink="http://www.w3.org/1999/xlink">
    <title>twitter</title>
    <defs>
        <path d="M25,7.01823369 C24.2270821,7.36071954 23.3977523,7.59298953 22.5263881,7.69668578 C23.4161102,7.16389569 24.0971701,6.31881588 24.4199598,5.31493189 C23.58538,5.80832975 22.6641579,6.16659995 21.6825779,6.36081595 C20.8965521,5.52229007 19.7785062,5 18.5384061,5 C16.1592944,5 14.2302765,6.92901786 14.2302765,9.30682566 C14.2302765,9.64406151 14.2683305,9.9734395 14.3418306,10.2884057 C10.762011,10.1086015 7.58767743,8.39349574 5.46313965,5.78732972 C5.09176159,6.42247781 4.88049163,7.16255746 4.88049163,7.95256365 C4.88049163,9.44723766 5.64160562,10.7660535 6.79640163,11.5376332 C6.09039557,11.5140253 5.42638959,11.3198093 4.84507981,10.9969853 L4.84507981,11.0507893 C4.84507981,13.1372731 6.33055773,14.8786289 8.30023742,15.2749531 C7.93935938,15.3720611 7.55881954,15.4258651 7.16513752,15.4258651 C6.8869557,15.4258651 6.61793565,15.3983111 6.35416561,15.345811 C6.90267141,17.0583089 8.4931495,18.3036247 10.3775594,18.3377669 C8.90388546,19.4925629 7.04572556,20.1788728 5.02749187,20.1788728 C4.67975601,20.1788728 4.33723585,20.1578728 4,20.1198188 C5.9067139,21.3441689 8.17035976,22.0580328 10.6032755,22.0580328 C18.5279747,22.0580328 22.8597465,15.4941152 22.8597465,9.80156177 L22.8453004,9.24385988 C23.6916841,8.64017752 24.4239059,7.88170569 25,7.01823369 Z" id="path-1"></path>
    </defs>
    <g id="Symbols" stroke="none" stroke-width="1" fill="none" fill-rule="evenodd">
        <g id="Sections/Footer" transform="translate(-1162.000000, -586.000000)">
            <g id="Social" transform="translate(958.000000, 554.000000)">
                <g id="twitter" transform="translate(204.000000, 32.000000)">
                    <rect id="bg" x="0" y="0" width="28" height="28"></rect>
                    <mask id="mask-2" fill="white">
                        <use xlink:href="#path-1"></use>
                    </mask>
                    <use fill="#FFFFFF" fill-rule="nonzero" xlink:href="#path-1"></use>
                </g>
            </g>
        </g>
    </g>
</svg>